<?xml version="1.0" encoding="UTF-8"?><svg id="Layer_2" xmlns="http://www.w3.org/2000/svg" width="404" height="316.72" viewBox="0 0 404 316.72"><defs><style>.cls-1{fill:#000;}.cls-1,.cls-2{stroke-width:0px;}.cls-2{fill:#fff;}</style></defs><g id="Layer_1-2"><path class="cls-2" d="M17.24,0c10.02,85.94,27.73,171.91,71.83,244.15,165.89,118.2,114.18,12.55,115.22-133.46,8.15-22.27,62.27-15.9,75.55-55.37,14.99-22.54,32.4-40.67,51.67-55.33H17.24Z"/><path class="cls-1" d="M89.07,244.15c1.13.81,2.25,1.6,3.36,2.38-1.9-2-3.76-4.03-5.59-6.1.74,1.24,1.48,2.48,2.23,3.71Z"/><path class="cls-1" d="M0,0c9.63,92.21,33.5,180.22,86.84,240.44C44.37,168.98,27.09,84.47,17.24,0H0Z"/><path class="cls-1" d="M331.52,0c-19.27,14.66-36.69,32.79-51.67,55.33-13.28,39.47-67.4,33.09-75.55,55.37-1.03,145.01,49.96,250.21-111.86,135.84,34.86,36.68,81.59,62.04,144,70.18,1.48-80.49,10.3-166.87,56.94-233.02C330.24,45.1,366.99,18.6,404,0h-72.48Z"/></g></svg>