<?xml version="1.0" encoding="UTF-8"?><svg id="Layer_1" xmlns="http://www.w3.org/2000/svg" width="398.02" height="317.33" viewBox="0 0 398.02 317.33"><defs><style>.cls-1{fill:#000;}.cls-1,.cls-2{stroke-width:0px;}.cls-2{fill:#fff;}</style></defs><path class="cls-2" d="M389.42,161.4c-3.76,42.18-8.51,87.5-32.4,123.63-67.12,44.14-46.2,4.69-46.62-49.84-3.3-8.32-25.19-5.94-30.57-20.68-39.58-54.95-121.01-39.82-180.28-51.31C-88.9,119.97,35.2,11.19,163.45,10.33c97.68-7.58,242.16,28.61,225.97,151.07Z"/><path class="cls-1" d="M397.14,113.73C356.42-25.55,118.03-24.94,19.18,51.26c-49.92,46.32,7.44,108.43,59.76,117.44,72.82,17.52,134.85-2.08,197.73,59.79,18.92,25.22,22.5,58.15,23.1,88.84,99.12-12.15,100.76-124.86,97.36-203.6ZM386.94,160.5c-3.66,41.2-8.27,85.49-31.51,120.78-65.26,43.13-44.92,4.58-45.33-48.69-3.21-8.13-24.49-5.8-29.72-20.2-38.48-53.68-117.66-38.9-175.29-50.13C-78.15,120.02,42.51,13.75,167.22,12.91c94.98-7.4,235.47,27.95,219.72,147.59Z"/><path class="cls-1" d="M256.99,60.8c0-5.33.04-10.66-.01-15.99-.07-8.19-1.11-9.1-9.46-8.46-.32.02-.74.18-.95.04-6.88-4.62-14.59-2.02-21.89-2.27-3.41-.11-7.53,1.07-10.21,3.13-10.6,8.12-20.28,17.18-26.55,29.37-11.98,23.28-14.54,48.24-12.73,73.76.88,12.39,8.27,20.63,20.28,24.51,11.54,3.73,22.07,3.23,30.13-7.15,4.17-5.36,8.67-10.65,11.76-16.63,13.01-25.13,22.26-51.3,19.63-80.31ZM226.21,137.93c-2.54,4.43-5.78,8.56-9.22,12.35-7.17,7.88-22.8,5.85-28.03-3.58-1.41-2.55-2.57-5.58-2.71-8.45-1.07-22.83,1.01-45.12,11.55-66,5.26-10.42,13.66-17.9,22.36-25.13,1.46-1.21,3.98-1.49,6.04-1.55,6.28-.2,12.56-.07,18.71-.07,3.73,33.02-2.31,63.83-18.7,92.43Z"/><path class="cls-1" d="M177.07,56.76c-.63-8.09-3.03-15.67-8.06-22.17-3.8-4.92-8.83-7.5-15.18-6.88-1.76.17-3.57,1.3-5.22,1.06-5.21-.77-8.61,1.81-11.49,5.51-17.61,22.6-28.28,47.51-26.99,76.87.71,15.87,7.46,27.71,20.76,35.87,7.99,4.9,16.34,3.86,22.52-3.06,4.17-4.68,7.99-9.87,10.96-15.37,1.91-3.53,3.57-7.12,5-10.76.25-.63.49-1.26.71-1.89,3.68-9.92,5.71-20.21,6.57-30.76.42-5.09.56-10.24.49-15.43,0-1.23.02-2.46.04-3.7.06-3.1.13-6.2-.11-9.29ZM165.99,67.13c-.03,21.82-2.84,41.09-12.98,58.64-1.98,3.43-4.63,6.48-7.01,9.68-2.88,3.87-6.52,3.81-10.09,1.37-8.38-5.71-14.36-13.14-13.97-23.86.36-9.94.74-19.97,2.31-29.77,2.54-15.97,12.36-28.62,21.63-41.1,3.69-4.97,11.94-5.4,15.78,1.73,4.28,7.97,4.8,16.5,4.33,23.31Z"/><path class="cls-1" d="M291.18,68.91c-5.69,13.07-10.95,25.17-16.48,37.88,1.26.87,3.26,2.28,5.29,3.63,13.52,8.99,27.06,17.96,40.58,26.94.41.27.75.66,1.13.98,2.99,2.45,4.14,5.46,1.49,8.64-2.64,3.17-5.68,2.44-8.79.14-6.81-5.04-13.67-10.03-20.69-14.78-7.81-5.28-15.81-10.27-24.63-15.97-2.23,6.07-4.37,11.2-5.99,16.49-3.66,11.91-7.56,23.8-6.68,36.57.25,3.65-1.55,6.25-5.45,6.31-4.13.06-5.72-2.55-5.89-6.46-.81-19.15,5.74-36.65,12.43-54.03,2.98-7.72,7.53-14.81,10.74-22.46,3.83-9.14,7.28-18.46,10.34-27.88,1.8-5.57,4.36-8.49,10.26-7.44,6.98,1.23,14.17,2.65,20.55,5.55,13.81,6.26,25.15,16.11,35.02,27.56,2.04,2.37,3.58,5.2,5.18,7.93,1.79,3.07,1.19,5.98-1.75,7.84-3.25,2.06-6.29.99-8.03-2.27-6.04-11.31-16.33-18.3-26.1-25.72-6.96-5.29-15.12-8.13-22.55-9.43Z"/><path class="cls-1" d="M69.2,118.75c-1.05,1.17-1.85,2.14-2.72,3.02-3.86,3.92-7.96,7.11-14.03,5.3-6.44-1.92-9.78-6.81-10.15-12.87-1.02-16.81-.7-33.61,4.08-49.99,1.05-3.6,3.47-5.44,7.14-4.38,3.56,1.02,4.92,3.63,3.82,7.37-4.02,13.59-4.27,27.57-4.15,41.56.02,2.35.76,4.69,1.42,8.53,2.52-2.65,4.12-3.98,5.29-5.63,5.61-7.85,8.02-16.72,7.96-26.29-.03-4.05.72-7.47,5.59-7.81,3.87-.27,5.9,2.66,6.24,7.94,1.01,15.41,2.15,30.82,3.26,46.23.04.56.28,1.12.43,1.67.52.07,1.04.15,1.56.22,1.68-6.95,4.36-13.83,4.86-20.86,1.45-20.39,2.03-40.85,2.93-61.28.07-1.5.05-3,0-4.5-.14-3.99,1.58-6.65,5.72-6.52,4.07.13,5.67,2.86,5.56,6.79-.1,3.66,0,7.33-.02,10.99-.12,20.96.74,42.01-4.1,62.64-1.47,6.26-3.5,12.46-5.99,18.39-1.87,4.47-5.56,7.5-10.93,7.09-5.76-.44-9.05-3.91-10.25-9.31-1.31-5.92-2.3-11.9-3.52-18.33Z"/><path class="cls-1" d="M375.81,116.48c-.84,2.48-1.23,3.74-1.7,4.97-8.53,22.53-21.68,42.2-37.34,60.31-2.38,2.75-5.2,3.73-8.24,1.16-3.19-2.7-2.58-5.58-.31-8.76,8.95-12.57,18.11-25.02,26.45-37.98,4-6.21,6.06-13.64,9.62-20.18,1.07-1.97,4.24-3.85,6.43-3.84,1.79.02,3.56,2.92,5.09,4.31Z"/><path class="cls-1" d="M311.85,192.51c.28-3.89,2.13-5.95,5.73-5.9,3.31.04,5.33,1.96,5.46,5.27.13,3.57-1.96,5.71-5.42,5.87-3.57.16-5.36-2.11-5.77-5.24Z"/></svg>