<?xml version="1.0" encoding="UTF-8"?><svg id="Layer_2" xmlns="http://www.w3.org/2000/svg" width="1283.6" height="159.05" viewBox="0 0 1283.6 159.05"><defs><style>.cls-1{fill:none;stroke:blue;stroke-linecap:round;stroke-linejoin:round;stroke-width:9px;}</style></defs><g id="Layer_1-2"><path class="cls-1" d="M553.77,11.89v98.95c0,.65,0,.65.65.65,3.12,0,6.24.04,9.37,0,4.34-.07,8.47-1.13,12.3-3.17,2.16-1.15,4.15-2.58,5.96-4.27,3.64-3.39,6.11-7.49,7.57-12.21.47-1.5.75-3.06.9-4.63.03-.26.08-.48.28-.65l.02.02c.42.14.42.39.42.75,0,3.63-.02,7.26,0,10.89,0,1.19.14,2.38.45,3.54.63,2.32,1.8,4.3,3.51,6,1.47,1.45,3.13,2.56,5.07,3.26,1.71.62,3.48.84,5.28.76,1.67-.08,3.11-.27,4.64-.98,1.92-.89,3.58-2.09,4.96-3.71,2.03-2.4,3.1-5.15,3.15-8.28.04-2.67,0-5.34,0-8,0-.18.09-.56.21-.69.29-.31.16-.66.15-.99-.05-1.07-.18-2.14-.2-3.21-.06-2.54.05-5.07.58-7.57.61-2.92,1.67-5.66,3.18-8.21,1.73-2.93,3.91-5.49,6.58-7.63,3.03-2.44,6.37-4.22,10.13-5.26,3.22-.89,6.49-1.18,9.8-.88,3.87.35,7.49,1.48,10.9,3.4,3.1,1.74,5.77,3.98,8.03,6.68,1.78,2.12,3.2,4.5,4.26,7.07.8,1.93,1.29,5,1.62,7.07.11,1.05.68,3.96.68,3.96,0,0,1.31-6.93,1.58-8.43,1.31-3.65,3.44-7.93,6.04-10.77,1.13-1.24,2.4-2.33,3.75-3.32,2.23-1.64,4.62-2.98,7.24-3.9,2.19-.77,4.43-1.27,6.75-1.45,2.29-.18,4.57-.11,6.86.05.5.03,1.02.23,1.52.01.27-.12.53-.16.82-.16,6.92,0,13.83,0,20.75,0l-20.73.08-.84.35c.46.44,1.09.43,1.64.58,2.07.58,4.01,1.44,5.88,2.47,2.69,1.49,5.06,3.4,7.13,5.67,1.46,1.6,2.71,3.37,3.77,5.27.89,1.6,1.62,3.27,2.17,5.01.68,2.15,1.07,4.34,1.21,6.59.16,2.63-.03,5.22-.6,7.79-.61,2.73-1.64,5.26-3.04,7.69-1.4,2.43-3.1,4.62-5.14,6.52-3.25,3.02-6.99,5.21-11.27,6.46-2.04.59-4.13.91-6.26,1.02-1.62.08-3.23.05-4.85-.06-.23-.01-.35.37-.58.39l-.74-.18c-.52.08-.71.08-1.07.11-4.31.32-8.54,1.05-12.58,2.67-2.52,1.02-4.86,2.31-6.87,4.19-2.22,2.08-4.01,4.44-5.12,7.3-.44,1.13-.73,2.28-.89,3.48-.12.95-.15,1.9-.06,2.83.17,1.7.63,3.34,1.33,4.91,1.54,3.45,3.82,6.21,7.3,7.84,1.86.87,3.87,1.22,5.91,1.34,1.5.09,2.95.13,4.43-.08,2.35-.34,4.56-1.1,6.64-2.24,3.74-2.05,6.62-5.05,9.21-8.38,2.55-3.27,4.67-6.79,6.47-10.52.9-1.88,1.72-3.8,2.41-5.77.07-.21.2-.41.32-.66,1.23.03,2.51.09,3.76.33,1.92.38,3.72,1.04,5.34,2.17,2.29,1.59,3.76,3.78,4.79,6.32.71,1.75,1.09,3.56,1.08,5.45,0,2.09-.51,4.08-1.35,5.99-1.18,2.7-2.96,4.82-5.62,6.15-1.66.83-3.43,1.22-5.28,1.31-.38.02-22.36.23-22.74.25l-5.03-.25c-1.5,0-2.3.23-3.8.14h-.63c-2.05-.13-4.05-.47-5.91-1.34-3.48-1.63-5.76-4.39-7.3-7.84-.7-1.57-1.16-3.21-1.33-4.91-.09-.93-.06-1.88.06-2.83.16-1.21.45-2.36.89-3.48,1.11-2.86,2.9-5.22,5.12-7.3,2-1.88,4.34-3.17,6.87-4.19,4.04-1.63,8.26-2.35,12.58-2.67,2.83-.48.21-.83-1.14-1.14-3.2-.75-6.07-2.2-8.76-4.04-1.5-1.02-2.89-2.17-4.13-3.49-3.11-3.29-5.45-7.06-6.76-11.43-.44-1.46-1.27-6.04-1.2-7.57-.24,5.21-3.81,12.09-6.53,16.84-1.95,2.4-4.26,4.36-6.87,5.98-2.7,1.67-5.59,2.84-8.71,3.5-2.45.52-4.92.68-7.41.57-2.65-.11-5.23-.62-7.73-1.51-2.91-1.03-5.57-2.52-8-4.42-2.71-2.11-4.89-4.68-6.65-7.62-1.47-2.45-2.53-5.06-3.15-7.85-.04-.2-.14-.32-.28-.43l-.37.17c-.13.14-.21.51-.21.69,0,2.67.03,5.34,0,8-.04,3.13-1.12,5.89-3.15,8.28-1.37,1.62-3.03,2.82-4.96,3.71-1.53.71-2.98.9-4.64.98-1.81.09-3.57-.13-5.28-.76-1.94-.71-3.61-1.81-5.07-3.26-1.71-1.69-2.88-3.68-3.51-6-.25-1.17-.4-2.35-.45-3.54-.02-3.63,0-7.26,0-10.89,0-.36.03-.08-.19-1.25-.19-1.49-.06-3.77.19-5.51,0-22.89,16.18-52.48,0-68.67-.04-.04-.18-.04-.22,0-16.19,16.19.22,45.78.22,68.67,0,.31,0,.62-.22.87h-.22c-.18-.16-.25-.35-.28-.6-.08-.92-.24-1.82-.43-2.72-.63-2.98-1.76-5.77-3.32-8.39-1.52-2.54-3.42-4.76-5.65-6.71-1.74-1.51-3.64-2.77-5.68-3.78-3.91-1.94-8.09-2.86-12.46-2.85-3.01,0-6.05,0-9.06,0V11.86l-.14.03Z"/><polygon class="cls-1" points="912.92 79.53 862.69 88.84 897.85 125.9 851.74 103.91 858.41 154.55 834.03 109.66 809.65 154.55 816.32 103.91 770.21 125.9 805.37 88.84 755.14 79.53 805.37 70.22 770.21 33.16 816.32 55.15 809.65 4.5 834.03 49.39 858.41 4.5 851.74 55.15 897.85 33.16 862.69 70.22 912.92 79.53"/><polygon class="cls-1" points="1096.01 79.53 1045.78 88.84 1080.94 125.9 1034.83 103.91 1041.5 154.55 1017.12 109.66 992.74 154.55 999.41 103.91 953.3 125.9 988.46 88.84 938.23 79.53 988.46 70.22 953.3 33.16 999.41 55.15 992.74 4.5 1017.12 49.39 1041.5 4.5 1034.83 55.15 1080.94 33.16 1045.78 70.22 1096.01 79.53"/><polygon class="cls-1" points="1279.1 79.53 1228.87 88.84 1264.03 125.9 1217.92 103.91 1224.59 154.55 1200.21 109.66 1175.83 154.55 1182.5 103.91 1136.39 125.9 1171.55 88.84 1121.32 79.53 1171.55 70.22 1136.39 33.16 1182.5 55.15 1175.83 4.5 1200.21 49.39 1224.59 4.5 1217.92 55.15 1264.03 33.16 1228.87 70.22 1279.1 79.53"/><polygon class="cls-1" points="162.28 79.53 112.05 88.84 147.21 125.9 101.1 103.91 107.77 154.55 83.39 109.66 59.01 154.55 65.68 103.91 19.57 125.9 54.73 88.84 4.5 79.53 54.73 70.22 19.57 33.16 65.68 55.15 59.01 4.5 83.39 49.39 107.77 4.5 101.1 55.15 147.21 33.16 112.05 70.22 162.28 79.53"/><polygon class="cls-1" points="345.37 79.53 295.14 88.84 330.3 125.9 284.19 103.91 290.86 154.55 266.48 109.66 242.1 154.55 248.77 103.91 202.66 125.9 237.82 88.84 187.59 79.53 237.82 70.22 202.66 33.16 248.77 55.15 242.1 4.5 266.48 49.39 290.86 4.5 284.19 55.15 330.3 33.16 295.14 70.22 345.37 79.53"/><polygon class="cls-1" points="528.46 79.53 478.23 88.84 513.39 125.9 467.28 103.91 473.95 154.55 449.57 109.66 425.19 154.55 431.86 103.91 385.75 125.9 420.91 88.84 370.68 79.53 420.91 70.22 385.75 33.16 431.86 55.15 425.19 4.5 449.57 49.39 473.95 4.5 467.28 55.15 513.39 33.16 478.23 70.22 528.46 79.53"/></g></svg>