<?xml version="1.0" encoding="UTF-8"?><svg id="Layer_2" xmlns="http://www.w3.org/2000/svg" width="238.89" height="238.89" viewBox="0 0 238.89 238.89"><defs><style>.cls-1{fill:#0000ff;}.cls-1,.cls-2{stroke-width:0px;}.cls-2{fill:#fff;}</style></defs><g id="Layer_1-2"><polygon class="cls-1" points="122.44 116.44 122.44 0 0 0 0 122.44 116.44 122.44 116.44 238.89 238.89 238.89 238.89 116.44 122.44 116.44"/><path class="cls-2" d="M26.46,17.01h31.29c7.06,0,12.44.54,16.14,1.62,4.97,1.47,9.23,4.07,12.78,7.81,3.55,3.74,6.25,8.32,8.1,13.74,1.85,5.42,2.78,12.1,2.78,20.04,0,6.98-.87,13-2.6,18.05-2.12,6.17-5.15,11.16-9.08,14.98-2.97,2.89-6.98,5.15-12.03,6.77-3.78,1.2-8.83,1.79-15.15,1.79H26.46V17.01ZM43.58,31.36v56.16h12.78c4.78,0,8.23-.27,10.35-.81,2.78-.69,5.08-1.87,6.91-3.53,1.83-1.66,3.33-4.39,4.48-8.18,1.16-3.8,1.73-8.97,1.73-15.53s-.58-11.59-1.73-15.1c-1.16-3.51-2.78-6.25-4.86-8.21-2.08-1.97-4.72-3.3-7.92-3.99-2.39-.54-7.08-.81-14.06-.81h-7.69Z"/><path class="cls-2" d="M168.59,218.7l-30.31-84.79h18.57l21.46,62.76,20.76-62.76h18.16l-30.37,84.79h-18.28Z"/></g></svg>