<?xml version="1.0" encoding="UTF-8"?>
<svg id="Layer_1" xmlns="http://www.w3.org/2000/svg" version="1.1" viewBox="0 0 405.7 294.4">
  <!-- Generator: Adobe Illustrator 29.0.1, SVG Export Plug-In . SVG Version: 2.1.0 Build 192)  -->
  <defs>
    <style>
      .st0 {
        fill: #8dc63f;
      }

      .st1 {
        fill: #fff;
      }

      .st2 {
        fill: #eb2e5e;
      }
    </style>
  </defs>
  <g id="c">
    <path class="st2" d="M0,111.3v-1.7c2,0,4.1,0,6.1,0,46.2-.3,92.4-.6,138.7-.9,2.1,0,4.3-.2,6.3-.3.7-1.1,1.2-1.7,1.5-2.4,9-19.6,17.9-39.2,26.9-58.7,7.3-15.8,14.8-31.5,22.1-47.3h1.6c3,6,6.1,11.9,8.9,18,11.9,25.6,23.6,51.3,35.4,76.9,2.2,4.7,4.4,9.4,6.6,14.2,2.2,0,4,.3,5.9.3,48.5.1,97,.2,145.5.3v1.7c-1.8.9-3.8,1.6-5.5,2.6-37.9,21.9-75.8,43.7-113.7,65.7-1.8,1.1-3.5,2.4-5.4,3.6.6,1.6,1,2.8,1.5,3.9,7.4,16.8,14.8,33.7,22.2,50.5,8.4,18.9,16.7,37.9,25.1,56.8h-2.5c-1.2-.7-2.3-1.4-3.5-2-27.4-14.6-54.8-29.3-82.1-43.9-11.5-6.2-23.1-12.2-34.6-18.5-2.8-1.5-5.3-1.8-8.1,0-1.3.8-2.6,1.4-4,2.1-31,16.8-62.1,33.5-93.1,50.2-7.6,4.1-15.1,8.1-22.7,12.1h-2.4c.7-1.8,1.3-3.6,2.1-5.4,12.7-28.7,25.4-57.4,38.1-86.1,2.8-6.4,5.6-12.7,8.6-19.4-1.4-.9-2.5-1.7-3.6-2.4-33.6-19.4-67.2-38.9-100.8-58.3-7-4-14.1-7.8-21.1-11.7Z"/>
    <polygon class="st0" points="241.4 63.1 246.1 76.4 283.1 79.1 289.4 107.5 184.2 214.2 103.9 217.1 114.6 194.9 94.1 179.8 82.6 204.4 97.7 229.6 190.4 232.5 306 109 303.3 73.1 241.4 63.1"/>
    <path class="st1" d="M50.7,151.4l26.3-3.8c8-1.2,14.5.8,19.3,5.8s7.9,12,9.3,21.1c1.4,10,.5,18.4-2.9,25.1-3.4,6.7-9.1,10.7-16.9,11.8l-25.8,3.7-9.2-63.7h0ZM70.5,202.2l12.1-1.8c4.3-.6,7.3-3,9.1-7.2s2.2-9.6,1.3-16.2-2.8-11.8-5.5-14.8-6.2-4.2-10.7-3.6l-12.3,1.8,6.1,41.7h0Z"/>
    <path class="st1" d="M115.3,148.8l-11.6,1.7-1.7-11.5,11.6-1.7,1.7,11.5ZM116.1,154.4l6.8,47.2-11.6,1.7-6.8-47.2,11.6-1.7Z"/>
    <path class="st1" d="M168.5,194.2l-11.6,1.7-4.2-29.3c-.4-2.7-1.3-4.8-2.7-6.1s-3.4-1.8-6.1-1.4-4.9,1.7-6.2,3.9-1.8,5-1.3,8.4l3.9,27.1-11.6,1.7-6.8-47.2,11.1-1.6,1,6.9h.2c2-5.9,6-9.2,12-10.1,4.5-.6,8.4.2,11.7,2.5s5.3,6,6,11l4.7,32.6h0Z"/>
    <path class="st1" d="M211.5,186.8l-11.6,1.7-4.2-29.3c-.4-2.9-1.4-5-2.8-6.2s-3.4-1.7-6-1.3c-2.9.4-5,1.8-6.3,4.1s-1.7,5-1.2,8.2l3.9,27.1-11.6,1.7-9.2-63.6,11.6-1.7,3.3,22.5h.2c1.9-5.2,5.9-8.3,11.9-9.1,4.6-.7,8.5.2,11.7,2.7,3.2,2.5,5.1,6.1,5.8,10.9l4.7,32.7h0Z"/>
    <path class="st1" d="M247.5,155.1h-20.7v-9.3h20.7v9.3Z"/>
    <path class="st1" d="M298.2,152.2l14.1,4.9-44,54.7-12.9-4.5v-70.2c0,0,14.6,5.1,14.6,5.1l-2.7,52.2h.2c0,0,30.8-42.3,30.8-42.3h0Z"/>
    <path class="st1" d="M328,235.6l-12.1-4.2,2.3-6.5h-.2c-5,4-10.8,4.9-17.4,2.6-5.1-1.8-8.6-4.6-10.5-8.6s-1.9-8.7,0-14.3l10.7-30.5,12.7,4.4-10.1,28.8c-1,2.9-1.1,5.4-.1,7.2s2.7,3.3,5.4,4.2c2.9,1,5.5.9,8-.3s4.3-3.5,5.5-6.9l9.4-26.8,12.7,4.4-16.2,46.3h0Z"/>
    <g>
      <path class="st1" d="M153.5,98.7l-24.3-3.8-6.7,12.8-14.4-2.3,33.9-62.1,15.6,2.5,12.9,69.5-14.9-2.4-2.1-14.2ZM151.4,86.8l-4.1-27.2-12.6,24.5,16.7,2.6Z"/>
      <path class="st1" d="M170.1,65.3l14.3,2.3,4.5,37.5,16.1-34.2,13.7,2.2-25.3,45.9-13.5-2.1-9.8-51.4Z"/>
      <path class="st1" d="M219.5,78.5c4-3.8,10.2-5,18.4-3.7,5.3.8,9.9,2.7,13.7,5.4,3.8,2.8,5.2,7.1,4.3,12.9l-3.5,22.3c-.2,1.5-.5,3.4-.8,5.6-.2,1.7-.1,2.9.2,3.5.3.7.9,1.3,1.6,1.8l-.3,1.9-13.9-2.2c-.2-1-.4-2-.4-2.9,0-.9,0-1.9.1-3-2.1,1.6-4.3,2.9-6.9,3.9-3,1.1-6.2,1.4-9.7.9-4.4-.7-7.9-2.5-10.3-5.5-2.5-3-3.4-6.8-2.6-11.4.9-6,3.9-9.9,9-11.9,2.8-1.1,6.7-1.5,11.7-1.4l4.4.2c2.4,0,4.1,0,5.2-.3,1.9-.5,3-1.5,3.3-3.2.3-2-.2-3.5-1.4-4.5-1.3-1-3.2-1.7-5.9-2.1-3-.5-5.3,0-6.8,1.2-1.1,1-1.9,2.4-2.5,4.2l-12.3-1.9c.9-4.2,2.7-7.5,5.2-9.9ZM223.5,114.2c1,1.2,2.4,1.9,4.1,2.2,2.7.4,5.4,0,8-1.2,2.6-1.2,4.2-4,5-8.2l.8-4.7c-.9.4-1.8.7-2.6.8-.9.2-2,.3-3.5.3h-2.9c-2.8.1-4.8.4-6,.9-2.2.8-3.4,2.5-3.8,4.9-.3,2.2,0,3.8,1.1,5Z"/>
    </g>
  </g>
</svg>